# xmcd CD database file
#
# Track frame offsets:
#	150
#	18628
#	34937
#
# Disc length: 652 seconds
#
# Revision: 0
# Processed by: cddbd v1.5.1PL2 Copyright (c) Steve Scherf et al.
# Submitted via: CDex 1.51
#
DISCID=1f028a03
DTITLE=Aly Cook - Time EP
DYEAR=2006
DGENRE=Country
TTITLE0=Time
TTITLE1=I Wonder
TTITLE2=Show Me
EXTD=YEAR: 2006
EXTT0=
EXTT1=
EXTT2=
PLAYORDER=
